<?xml version="1.0" standalone="no"?>
<!DOCTYPE svg PUBLIC "-//W3C//DTD SVG 20010904//EN"
 "http://www.w3.org/TR/2001/REC-SVG-20010904/DTD/svg10.dtd">
<svg version="1.0" xmlns="http://www.w3.org/2000/svg"
 width="260.000000pt" height="260.000000pt" viewBox="0 0 260.000000 260.000000"
 preserveAspectRatio="xMidYMid meet">
<metadata>
Created by potrace 1.11, written by Peter Selinger 2001-2013
</metadata>
<g transform="translate(0.000000,260.000000) scale(0.100000,-0.100000)"
fill="#000000" stroke="none">
<path d="M573 2580 c-10 -11 -23 -20 -29 -20 -7 0 -14 -4 -16 -8 -1 -4 -20
-18 -41 -31 -20 -12 -35 -27 -32 -32 4 -5 0 -6 -8 -3 -8 3 -23 -3 -32 -13 -10
-10 -21 -18 -24 -18 -15 0 -50 -33 -43 -40 4 -5 1 -5 -5 -1 -15 8 -57 -17 -46
-27 6 -6 -20 -11 -40 -8 -5 1 -6 -2 -3 -7 3 -5 -6 -14 -19 -20 -14 -7 -25 -16
-25 -22 0 -6 -4 -9 -9 -5 -5 3 -17 -3 -27 -12 -10 -10 -22 -18 -27 -18 -5 0
-15 -8 -22 -18 -7 -10 -16 -18 -19 -18 -22 3 -37 0 -33 -6 6 -9 -13 -27 -33
-31 -41 -10 -40 18 -40 -1043 0 -623 4 -1020 10 -1024 5 -3 6 -13 3 -22 -5
-12 -3 -14 7 -8 10 6 12 4 7 -8 -3 -9 0 -18 9 -21 9 -3 12 -10 9 -16 -3 -5 -1
-10 5 -10 16 0 40 -26 32 -35 -4 -4 -2 -5 3 -4 6 2 24 -4 42 -14 29 -15 121
-17 1176 -17 1023 0 1146 1 1157 15 7 9 19 14 27 11 7 -3 13 -1 13 5 0 6 5 7
10 4 6 -3 10 -2 10 4 0 6 13 24 30 41 16 16 27 30 24 30 -2 0 4 12 13 27 14
21 15 25 3 19 -12 -7 -13 -6 -2 5 19 20 18 2032 -1 2048 -8 6 -17 8 -20 4 -4
-3 -7 -1 -7 5 0 7 -7 12 -16 12 -8 0 -12 5 -9 10 5 9 -16 15 -38 11 -5 -1 -6
3 -3 8 4 5 -3 12 -14 16 -11 4 -18 11 -14 16 3 5 2 9 -3 8 -17 -3 -53 14 -47
22 3 5 -2 9 -12 9 -9 0 -24 8 -33 18 -21 22 -76 53 -85 47 -3 -3 -4 -2 -1 2 6
8 -55 53 -73 53 -7 0 -10 5 -7 10 3 6 -1 10 -9 10 -9 0 -16 4 -16 10 0 5 -7 7
-15 4 -9 -4 -15 0 -15 10 0 9 -7 16 -15 16 -16 0 -34 12 -63 43 -9 9 -24 17
-33 17 -10 0 -19 6 -21 13 -6 16 -1395 20 -1417 3 -11 -8 -13 -8 -7 2 11 19
-2 14 -21 -8z m297 -385 c14 0 31 4 39 9 9 6 12 5 8 -1 -7 -11 68 -11 79 0 4
4 12 3 18 0 18 -12 36 -12 36 -1 0 7 4 7 13 1 13 -11 83 -11 93 0 4 3 12 3 18
0 18 -12 36 -12 36 -2 0 6 6 7 13 2 16 -11 87 -11 93 -1 3 5 10 5 17 1 17 -11
57 -10 57 2 0 6 3 5 8 -1 6 -10 31 -12 67 -4 6 1 12 1 15 0 16 -8 70 -5 70 4
0 8 3 8 8 1 4 -6 16 -11 27 -11 11 0 23 5 27 11 5 6 8 6 8 -2 0 -11 24 -12 36
-1 3 4 17 3 30 -2 17 -7 24 -6 24 3 0 8 3 8 8 1 8 -12 52 -14 52 -2 0 5 8 4
18 -2 17 -10 59 -26 77 -30 6 -1 14 -8 18 -16 4 -8 16 -14 27 -14 10 0 26 -7
34 -16 9 -8 21 -12 27 -8 8 4 9 3 5 -4 -5 -8 0 -12 13 -12 11 0 26 -7 34 -15
8 -8 17 -11 21 -8 3 4 6 1 6 -6 0 -8 7 -11 15 -7 8 3 15 2 15 -2 0 -5 16 -14
35 -22 19 -8 35 -18 35 -22 0 -5 4 -7 8 -4 5 3 19 -2 31 -10 17 -12 19 -19 11
-29 -8 -10 -8 -15 0 -20 8 -5 8 -11 0 -20 -7 -8 -8 -20 -4 -27 11 -17 12 -27
3 -60 -4 -15 -4 -30 1 -33 6 -3 5 -16 0 -29 -5 -13 -6 -27 -3 -30 10 -10 10
-50 0 -64 -7 -8 -6 -17 1 -24 8 -8 8 -17 1 -30 -7 -13 -6 -18 3 -18 22 0 -9
-23 -34 -24 -13 -1 -28 -5 -35 -9 -6 -4 -15 -2 -19 4 -5 8 -3 9 6 4 9 -5 11
-4 6 4 -4 6 -13 8 -19 4 -18 -11 -80 -10 -96 2 -11 7 -13 7 -7 -2 4 -8 2 -13
-8 -13 -8 0 -18 5 -21 10 -4 7 -13 7 -24 0 -12 -6 -22 -5 -29 2 -8 8 -12 8
-12 2 0 -12 -69 -13 -87 -1 -6 4 -14 3 -17 -2 -4 -5 -14 -8 -24 -6 -9 1 -23
-3 -31 -9 -11 -8 -13 -8 -8 0 4 7 0 14 -8 18 -8 3 -17 1 -20 -4 -4 -7 -13 -6
-26 0 -10 6 -19 7 -19 2 0 -10 -70 -10 -87 1 -6 4 -14 3 -17 -2 -4 -5 -14 -8
-24 -6 -9 1 -23 -3 -31 -9 -11 -8 -13 -8 -8 0 4 7 0 14 -8 18 -8 3 -17 1 -20
-4 -4 -7 -13 -6 -26 0 -10 6 -19 7 -19 2 0 -10 -70 -10 -87 1 -6 4 -14 3 -17
-2 -4 -5 -14 -8 -24 -6 -9 1 -23 -3 -31 -9 -11 -8 -13 -8 -8 0 4 7 0 14 -8 18
-8 3 -17 1 -20 -4 -4 -7 -13 -6 -26 0 -10 6 -19 7 -19 2 0 -10 -70 -10 -87 1
-6 4 -14 3 -17 -2 -4 -5 -14 -8 -24 -6 -9 1 -23 -3 -31 -9 -11 -8 -13 -8 -8 0
4 7 0 14 -8 18 -8 3 -17 1 -20 -5 -4 -5 -11 -7 -16 -3 -5 3 -17 0 -26 -8 -9
-7 -14 -8 -10 -2 4 7 0 14 -8 18 -8 3 -17 1 -20 -4 -4 -7 -13 -6 -26 0 -10 6
-19 7 -19 2 0 -10 -70 -10 -87 1 -6 4 -14 3 -17 -2 -4 -5 -14 -8 -24 -6 -9 1
-23 -3 -31 -9 -11 -8 -13 -8 -8 0 4 7 0 14 -8 18 -8 3 -17 1 -20 -5 -4 -5 -11
-7 -16 -3 -5 3 -17 0 -26 -8 -9 -7 -14 -8 -10 -2 4 7 0 14 -8 18 -8 3 -17 1
-20 -4 -4 -7 -13 -6 -26 0 -10 6 -19 7 -19 2 0 -10 -75 -10 -86 0 -4 4 -12 4
-18 0 -32 -20 -56 8 -46 55 5 18 5 33 1 33 -8 0 -7 42 2 56 3 5 2 16 -2 23 -5
7 -5 28 -1 47 4 19 5 34 1 34 -8 0 -7 48 2 56 3 4 3 14 -2 23 -12 24 -5 54 18
72 11 9 18 19 15 22 -3 3 6 4 20 3 14 -2 26 1 26 6 0 8 54 34 56 26 0 -2 8 5
18 15 10 9 26 17 37 17 10 0 19 4 19 8 0 7 109 60 126 61 2 0 12 7 20 16 9 8
22 16 30 16 27 3 32 4 40 12 4 4 10 4 13 0 3 -5 17 -8 31 -8z m-233 -1402 c3
3 18 0 33 -8 15 -8 31 -11 35 -7 5 4 5 2 2 -4 -3 -6 5 -17 18 -24 14 -7 25
-17 25 -22 0 -5 5 -6 10 -3 6 3 10 1 10 -4 0 -18 0 -19 16 -56 8 -19 11 -35 8
-35 -4 0 -1 -6 5 -14 9 -10 9 -16 1 -21 -8 -5 -8 -11 1 -21 7 -8 7 -14 1 -14
-5 0 -12 -13 -15 -29 -3 -16 -13 -36 -22 -45 -12 -12 -13 -16 -3 -16 7 -1 -2
-7 -19 -15 -18 -8 -33 -20 -33 -26 0 -7 -3 -10 -6 -7 -3 4 -17 0 -31 -7 -15
-8 -30 -12 -35 -9 -4 3 -8 0 -8 -6 0 -6 -5 -8 -12 -4 -18 11 -48 12 -48 2 0
-5 -10 -2 -23 7 -13 8 -27 12 -30 8 -4 -3 -7 -1 -7 5 0 7 -7 12 -15 12 -9 0
-18 7 -21 15 -4 8 -10 12 -15 9 -5 -3 -9 0 -9 6 0 7 -9 25 -20 40 -11 16 -21
40 -22 54 -1 14 -5 26 -8 26 -3 0 -6 9 -6 20 0 11 3 20 6 20 4 0 7 6 8 13 1
12 3 22 17 64 4 12 16 25 26 28 11 4 17 10 14 14 -2 4 7 14 20 21 14 7 25 17
25 21 0 5 7 6 15 3 9 -4 15 0 15 7 0 11 3 11 10 -1 6 -9 10 -10 10 -3 0 7 10
10 26 7 19 -3 24 -1 18 8 -6 9 -3 9 9 -1 10 -8 20 -11 24 -8z m1384 3 c5 3 9
-1 9 -8 0 -9 3 -9 10 2 5 8 10 10 10 3 0 -6 9 -9 22 -5 14 3 19 2 14 -6 -5 -8
0 -12 12 -12 11 0 28 -12 38 -27 9 -15 27 -36 38 -46 12 -10 14 -15 6 -11 -12
6 -13 5 -3 -7 7 -8 15 -30 18 -49 3 -18 8 -37 11 -42 3 -4 1 -8 -3 -8 -5 0
-10 -10 -10 -22 -1 -13 -8 -34 -15 -48 -14 -27 -78 -94 -78 -82 0 4 -4 1 -8
-5 -5 -7 -20 -14 -35 -15 -15 -1 -27 -7 -27 -12 0 -6 -5 -5 -12 2 -8 8 -15 9
-25 1 -7 -7 -13 -7 -13 -2 0 5 -14 10 -31 11 -17 1 -38 9 -46 17 -8 8 -18 13
-22 11 -4 -3 -15 8 -25 25 -10 17 -22 27 -29 23 -7 -4 -9 -4 -5 1 4 4 3 14 -3
22 -6 7 -8 13 -5 13 4 0 1 10 -5 22 -13 25 -16 78 -5 96 4 7 4 17 0 24 -4 7
-3 8 4 4 8 -4 12 0 12 11 0 35 90 112 123 105 4 -1 7 2 7 6 0 4 9 8 20 9 13 1
18 -3 15 -10 -3 -7 0 -4 7 6 7 9 14 13 16 7 2 -6 8 -8 13 -4z"/>
</g>
</svg>
